<svg preserveAspectRatio="xMidYMid meet" viewBox="151.552 360.448 710.656 296.96" xmlns="http://www.w3.org/2000/svg"
     version="1.0" style="max-height: 500px" width="710.656" height="296.96">

    <g stroke="none" fill="#000000" transform="translate(0.000000,1024.000000) scale(0.100000,-0.100000)">
        <path d="M5066 6308 c-2 -13 -9 -57 -15 -98 -15 -102 -56 -181 -136 -263 -36&#10;-37 -63 -72 -60 -78 4 -5 55 -34 113 -63 92 -47 104 -55 82 -60 -14 -4 -90&#10;-20 -170 -37 -169 -35 -535 -119 -666 -153 l-91 -23 -64 29 c-35 16 -121 52&#10;-192 80 l-127 50 -56 -38 c-83 -57 -138 -109 -130 -122 3 -6 41 -30 82 -53 53&#10;-29 72 -44 63 -49 -25 -14 -262 -59 -366 -69 -134 -14 -302 7 -418 51 -16 7&#10;-96 65 -178 130 -247 198 -376 276 -579 352 -88 33 -148 45 -148 30 0 -29 172&#10;-605 206 -693 l46 -114 -31 -67 c-17 -37 -43 -100 -56 -141 -35 -102 -155&#10;-542 -155 -568 0 -29 20 -27 132 10 193 64 377 172 617 361 107 85 118 91 210&#10;116 86 24 114 27 261 27 147 0 177 -3 273 -28 60 -15 116 -31 124 -35 11 -7&#10;-3 -20 -60 -55 -110 -69 -109 -63 -30 -154 195 -226 238 -273 251 -273 8 0&#10;106 68 219 151 l206 151 136 -26 c147 -29 364 -60 476 -70 39 -4 87 -9 108&#10;-12 l38 -6 -53 -37 -52 -36 -22 -145 c-29 -184 -29 -190 -5 -190 32 0 196 88&#10;278 149 43 31 121 98 174 148 l96 90 339 6 c192 3 404 12 490 21 416 43 1033&#10;157 1409 260 360 99 495 155 568 236 48 53 73 105 56 116 -6 3 -115 0 -242 -6&#10;-128 -7 -245 -11 -262 -9 l-30 4 50 38 c114 85 227 125 412 143 86 8 98 17 76&#10;61 -30 62 -126 141 -235 193 -418 199 -1193 340 -1870 340 l-208 0 -177 97&#10;c-372 202 -669 353 -694 353 -5 0 -10 -10 -13 -22z m246 -144 c316 -165 519&#10;-276 514 -282 -3 -3 -77 -16 -163 -28 -87 -13 -237 -38 -333 -55 l-175 -32&#10;-113 57 -112 56 51 63 c65 77 104 158 120 248 7 38 16 69 20 69 4 0 90 -43&#10;191 -96z m-3140 -328 c179 -70 324 -161 537 -335 58 -47 112 -91 120 -97 12&#10;-9 -4 -33 -95 -137 l-109 -127 -157 0 -157 0 -17 31 c-31 61 -86 227 -150 450&#10;-60 212 -69 249 -61 249 2 0 42 -15 89 -34z m3579 -361 l-136 -355 -745 1&#10;c-952 1 -2157 13 -2166 22 -6 6 20 38 143 176 l40 45 104 -25 c89 -20 128 -24&#10;269 -23 196 0 228 6 815 154 587 148 1033 243 1470 315 240 39 257 41 306 44&#10;l36 1 -136 -355z m754 345 c226 -15 588 -59 602 -74 7 -6 -175 -202 -222 -239&#10;-45 -36 -64 -74 -113 -232 -59 -189 -59 -178 17 -292 71 -106 139 -177 232&#10;-243 54 -37 66 -50 52 -54 -18 -5 -192 -36 -204 -36 -4 0 -35 39 -70 88 -35&#10;48 -221 299 -414 557 -193 259 -361 485 -373 503 l-23 32 183 0 c101 0 251 -5&#10;333 -10z m-516 -73 c25 -34 182 -246 349 -470 167 -225 302 -410 300 -412 -2&#10;-2 -29 2 -60 11 -108 28 -324 65 -415 71 -89 6 -96 5 -198 -32 -59 -21 -109&#10;-44 -112 -52 -3 -8 0 -25 7 -39 25 -46 156 -178 215 -217 56 -36 64 -39 115&#10;-33 65 6 180 35 308 77 73 25 92 34 92 50 0 27 -26 25 -149 -15 -58 -19 -145&#10;-43 -194 -53 -85 -17 -88 -17 -125 2 -46 25 -202 178 -202 199 0 21 146 66&#10;215 66 59 0 282 -36 445 -73 l105 -23 59 -77 c35 -46 56 -81 50 -86 -22 -20&#10;-489 -84 -744 -101 -196 -13 -585 -18 -596 -8 -8 9 -3 24 273 741 113 295 209&#10;537 212 537 3 0 26 -29 50 -63z m1421 -58 c263 -65 501 -144 623 -207 71 -37&#10;167 -115 167 -136 0 -8 -34 -16 -95 -24 -170 -21 -271 -68 -435 -199 l-85 -68&#10;115 -3 c63 -2 198 2 299 7 102 6 187 9 189 6 3 -3 -15 -24 -39 -48 -35 -33&#10;-71 -53 -164 -89 -153 -59 -249 -88 -289 -88 -63 0 -192 41 -309 97 -64 31&#10;-124 64 -131 72 -8 9 -24 47 -37 85 l-22 70 33 110 c38 126 43 169 19 174 -11&#10;2 -25 -29 -59 -133 -48 -151 -48 -160 0 -287 l21 -57 127 -64 c70 -36 151 -72&#10;181 -82 37 -12 49 -20 40 -25 -18 -10 -111 -35 -269 -70 l-124 -28 -66 45&#10;c-111 77 -165 125 -221 196 -62 79 -69 92 -43 85 92 -27 276 -77 304 -82 33&#10;-7 34 -6 16 8 -20 16 -228 100 -323 131 -39 12 -53 22 -53 35 0 10 20 80 44&#10;155 l44 137 99 102 c54 55 124 129 157 164 68 73 40 72 286 11z m-3523 -108&#10;c173 -70 170 -64 56 -94 -160 -42 -149 -42 -232 5 -41 24 -76 48 -77 53 -4 13&#10;96 85 117 85 8 0 69 -22 136 -49z m-1233 -515 c8 -14 54 -70 101 -125 47 -55&#10;85 -103 85 -106 0 -8 -262 -206 -347 -262 -130 -85 -402 -207 -411 -184 -3 9&#10;117 437 141 506 8 22 29 75 47 118 l32 77 168 0 c167 0 168 0 184 -24z m1699&#10;8 l1237 -7 -6 -21 c-4 -12 -48 -130 -99 -263 l-92 -241 -93 -89 c-51 -48 -125&#10;-114 -164 -145 -73 -59 -233 -154 -242 -145 -6 6 23 214 32 228 16 26 169 116&#10;276 162 116 50 154 77 109 77 -11 0 -71 -19 -133 -41 -121 -44 -124 -45 -298&#10;-28 -326 30 -615 85 -850 161 -295 95 -376 119 -500 151 -114 28 -139 31 -285&#10;32 -136 0 -174 -4 -253 -24 -78 -20 -95 -21 -108 -10 -14 12 -132 149 -174&#10;203 -15 18 -10 19 195 13 116 -4 767 -10 1448 -13z m-400 -380 c114 -37 206&#10;-68 205 -69 -2 -1 -79 -57 -171 -124 -93 -67 -174 -124 -180 -126 -11 -3 -249&#10;262 -251 279 -2 11 168 116 180 112 6 -2 104 -34 217 -72z"/>
        <path d="M7580 5460 c-27 -27 -27 -90 -1 -114 23 -21 85 -24 107 -5 39 32 35&#10;107 -6 129 -31 16 -79 11 -100 -10z m85 -54 c0 -29 -31 -44 -50 -25 -23 23 -9&#10;51 24 47 18 -2 26 -9 26 -22z"/>
    </g>
</svg>